<svg width="30" height="30" viewBox="0 0 30 30" fill="none" xmlns="http://www.w3.org/2000/svg">
<path d="M15 0C6.72632 0 0 6.72632 0 15C0 23.2737 6.72632 30 15 30C23.2737 30 30 23.2737 30 15C30 6.72632 23.2737 0 15 0ZM13.3263 7.51579C13.3263 6.6 14.0842 5.8421 15 5.8421C15.9158 5.8421 16.6737 6.6 16.6737 7.51579V15.8842C16.6737 16.8 15.9158 17.5579 15 17.5579C14.0842 17.5579 13.3263 16.8 13.3263 15.8842V7.51579ZM15 24.0632C13.8 24.0632 12.8211 23.0842 12.8211 21.8842C12.8211 20.6842 13.8 19.7053 15 19.7053C16.2 19.7053 17.1789 20.6842 17.1789 21.8842C17.1789 23.0842 16.2 24.0632 15 24.0632Z" fill="#FDB81E"/>
</svg>
